<svg width="22" height="22" viewBox="0 0 22 22" fill="none" xmlns="http://www.w3.org/2000/svg">
<path d="M19.25 15.606V12.5C19.25 12.1022 19.092 11.7206 18.8107 11.4393C18.5294 11.158 18.1478 11 17.75 11H11.75V8H13.25C13.6477 7.99954 14.029 7.84136 14.3102 7.56016C14.5914 7.27895 14.7496 6.89768 14.75 6.5V2C14.7496 1.60232 14.5914 1.22105 14.3102 0.939844C14.029 0.658638 13.6477 0.500457 13.25 0.5H8.75001C8.3523 0.500397 7.971 0.65856 7.68979 0.939778C7.40857 1.221 7.2504 1.6023 7.25001 2V6.5C7.2504 6.8977 7.40857 7.279 7.68979 7.56022C7.971 7.84144 8.3523 7.9996 8.75001 8H10.25V11H4.25001C3.85218 11 3.47065 11.158 3.18935 11.4393C2.90804 11.7206 2.75001 12.1022 2.75001 12.5V15.6066C2.04301 15.7891 1.42687 16.2232 1.01706 16.8276C0.607247 17.4319 0.431912 18.165 0.523918 18.8893C0.615924 19.6137 0.968953 20.2796 1.51683 20.7623C2.06471 21.245 2.76983 21.5113 3.50001 21.5113C4.23019 21.5113 4.9353 21.245 5.48318 20.7623C6.03106 20.2796 6.38409 19.6137 6.4761 18.8893C6.5681 18.165 6.39277 17.4319 5.98296 16.8276C5.57315 16.2232 4.957 15.7891 4.25001 15.6066V12.5H10.25V15.6065C9.54301 15.789 8.92687 16.2232 8.51706 16.8275C8.10725 17.4318 7.93191 18.1649 8.02392 18.8893C8.11592 19.6136 8.46895 20.2795 9.01683 20.7622C9.56471 21.2449 10.2698 21.5112 11 21.5112C11.7302 21.5112 12.4353 21.2449 12.9832 20.7622C13.5311 20.2795 13.8841 19.6136 13.9761 18.8893C14.0681 18.1649 13.8928 17.4318 13.483 16.8275C13.0732 16.2232 12.457 15.789 11.75 15.6065V12.5H17.75V15.606C17.043 15.7886 16.4269 16.2227 16.0171 16.8271C15.6072 17.4314 15.4319 18.1644 15.5239 18.8888C15.6159 19.6132 15.969 20.2791 16.5168 20.7618C17.0647 21.2445 17.7698 21.5108 18.5 21.5108C19.2302 21.5108 19.9353 21.2445 20.4832 20.7618C21.0311 20.2791 21.3841 19.6132 21.4761 18.8888C21.5681 18.1644 21.3928 17.4314 20.983 16.8271C20.5732 16.2227 19.957 15.7886 19.25 15.606ZM8.75001 2H13.25L13.2508 6.5H8.75001V2ZM5.00001 18.5C5.00001 18.7967 4.91203 19.0867 4.74721 19.3334C4.58239 19.58 4.34812 19.7723 4.07403 19.8858C3.79994 19.9994 3.49834 20.0291 3.20737 19.9712C2.9164 19.9133 2.64913 19.7704 2.43935 19.5607C2.22957 19.3509 2.08671 19.0836 2.02883 18.7926C1.97095 18.5017 2.00066 18.2001 2.11419 17.926C2.22772 17.6519 2.41998 17.4176 2.66665 17.2528C2.91333 17.088 3.20334 17 3.50001 17C3.89769 17.0005 4.27896 17.1586 4.56016 17.4398C4.84137 17.7211 4.99955 18.1023 5.00001 18.5ZM12.5 18.5C12.5 18.7967 12.412 19.0867 12.2472 19.3334C12.0824 19.58 11.8481 19.7723 11.574 19.8858C11.2999 19.9994 10.9983 20.0291 10.7074 19.9712C10.4164 19.9133 10.1491 19.7704 9.93935 19.5607C9.72957 19.3509 9.58671 19.0836 9.52883 18.7926C9.47095 18.5017 9.50066 18.2001 9.61419 17.926C9.72772 17.6519 9.91998 17.4176 10.1667 17.2528C10.4133 17.088 10.7033 17 11 17C11.3977 17.0005 11.7789 17.1587 12.0601 17.4399C12.3413 17.7211 12.4995 18.1023 12.5 18.5ZM18.5 20C18.2033 20 17.9133 19.912 17.6667 19.7472C17.42 19.5824 17.2277 19.3481 17.1142 19.074C17.0007 18.7999 16.971 18.4983 17.0288 18.2074C17.0867 17.9164 17.2296 17.6491 17.4393 17.4393C17.6491 17.2296 17.9164 17.0867 18.2074 17.0288C18.4983 16.9709 18.7999 17.0006 19.074 17.1142C19.3481 17.2277 19.5824 17.42 19.7472 17.6666C19.912 17.9133 20 18.2033 20 18.5C19.9996 18.8977 19.8414 19.2789 19.5602 19.5602C19.279 19.8414 18.8977 19.9995 18.5 20Z" fill="#A6A6A6"/>
</svg>
